<?xml version="1.0" encoding="UTF-8"?>
<svg id="Layer_1" xmlns="http://www.w3.org/2000/svg" version="1.1" viewBox="0 0 1024 1024">
  <!-- Generator: Adobe Illustrator 30.3.0, SVG Export Plug-In . SVG Version: 2.1.3 Build 182)  -->
  <defs>
    <style>
      .st0 {
        fill: #e2d8fa;
      }

      .st1 {
        fill: #743ee4;
      }
    </style>
  </defs>
  <rect class="st0" x="0" y="0" width="1024" height="1024"/>
  <g>
    <rect class="st1" x="416.62" y="459.11" width="65.92" height="284.96"/>
    <rect class="st1" x="494.37" y="755.94" width="459.77" height="40.58"/>
    <rect class="st1" x="416.62" y="755.94" width="65.92" height="40.59"/>
    <path class="st1" d="M319.2,292.78l122.32,54.54c4.37,21.26,12.59,40.92,23.79,58.35h-48.68v41.55h65.92v-19.07c3.76,4.14,7.7,8.1,11.83,11.85v7.21h8.5c5.39,4.29,11.03,8.26,16.9,11.87h-25.4v284.96h459.77v-284.96h-255.41c5.87-3.61,11.48-7.59,16.85-11.87h238.56v-41.55h-200.93c17.36-26.89,27.48-58.89,27.48-93.24,0-94.85-76.9-172.02-171.42-172.02-82.94,0-152.77,58.34-168.16,139.55h-119.21c-3.15,0-5.87,2.21-6.53,5.31-.65,3.09.94,6.22,3.82,7.51h0ZM778.86,498.05h137.16v173.95h-137.16v-173.95h0ZM446.72,293.37c3.29,0,6.09-2.4,6.59-5.66,12.13-77.59,77.72-133.9,155.96-133.9,87.16,0,158.08,71.16,158.08,158.62s-70.91,158.63-158.08,158.63c-76.17,0-141.49-54.53-155.32-129.66-.4-2.17-1.84-4.01-3.85-4.9l-96.75-43.14h93.37Z"/>
    <path class="st1" d="M567.56,364.15l16.3,16.36c2.16,2.16,5.15,3.37,8.15,3.37s5.98-1.2,8.15-3.37l16.3-16.36,86.76-87.07c2.16-2.16,3.36-5.17,3.36-8.18h0c0-3-1.2-6.01-3.36-8.17l-16.3-16.36c-2.16-2.16-5.15-3.37-8.15-3.37s-5.99,1.2-8.15,3.37l-78.61,79.02-35.24-35.48c-2.15-2.16-5.15-3.37-8.14-3.37s-5.99,1.2-8.15,3.37l-16.3,16.35c-2.16,2.16-3.36,5.17-3.36,8.18s1.2,6.01,3.36,8.18l43.39,43.53h-.01Z"/>
    <path class="st1" d="M136.4,435.85v75.26l112.46-179.39c-29.91-14.4-63.08-13-92.27,4.23-64.94,38.33-99.78,121.66-93.17,260.28.64,13.24,12.02,23.46,25.44,22.84,13.42-.61,23.78-11.86,23.16-25.09h0c-3.06-64.46,3.33-99.27,18.49-142.9,1.83-5.29,3.8-10.37,5.9-15.23h-.01Z"/>
    <path class="st1" d="M268.37,343.69l-131.97,210.5v.32h140.03v-120.73c2.51,5.6,4.84,11.5,7.02,17.68,15.31,43.69,21.79,78.38,18.77,142.55-.63,13.23,9.74,24.49,23.16,25.09.4.02.77.04,1.16.04,12.92,0,23.68-10.05,24.28-22.89h0c6.18-130.02-24.47-208.82-82.45-252.55h0Z"/>
    <path class="st1" d="M961.09,882.67h-57.38v-52.59h50.43v-15.63H416.62v83.84h543.84c1.14-5.1,1.05-10.41.64-15.62h-.01ZM543.1,882.67h-79.16v-52.59h79.16v52.59ZM689.69,882.67h-79.16v-52.59h79.16v52.59h0ZM836.28,882.67h-79.16v-52.59h79.16v52.59h0Z"/>
    <path class="st1" d="M136.41,624.78h.21v250.18c0,16.06,13.21,29.08,29.48,29.08s29.48-13.02,29.48-29.08v-250.18h21.68v250.37c0,16.05,13.21,29.08,29.5,29.08s29.48-13.03,29.48-29.08v-250.37h.19v-47.34h-140.02v47.34Z"/>
    <polygon class="st1" points="274.14 175.34 311.48 119.77 124.58 129.81 134.59 175.34 274.14 175.34"/>
    <path class="st1" d="M147.57,197.49h-12.98v40.64c0,38.73,31.3,70.14,69.92,70.14s69.92-31.41,69.92-70.14v-7.39h33.72l-37.05-33.24h-123.53Z"/>
  </g>
</svg>